<?xml version="1.0" encoding="utf-8"?>
<!-- Generator: Adobe Illustrator 24.0.2, SVG Export Plug-In . SVG Version: 6.00 Build 0)  -->
<svg version="1.1" id="图层_1" xmlns="http://www.w3.org/2000/svg" xmlns:xlink="http://www.w3.org/1999/xlink" x="0px" y="0px"
	 viewBox="0 0 595.28 841.89" style="enable-background:new 0 0 595.28 841.89;" xml:space="preserve">
<style type="text/css">
	.st0{fill:#F4D1BD;}
	.st1{fill:#1A2649;}
	.st2{fill:#E61D36;}
	.st3{fill:#0F6CB2;}
	.st4{fill:#FFFFFF;}
</style>
<g>
	<g>
		<path class="st0" d="M227.12,462.45c-9.01,0-16.34-9.36-16.34-20.86c0-11.5,7.33-20.86,16.34-20.86s16.34,9.36,16.34,20.86
			C243.46,453.09,236.13,462.45,227.12,462.45z"/>
		<g>
			<path class="st1" d="M227.12,422.72c7.92,0,14.34,8.45,14.34,18.86c0,10.42-6.42,18.86-14.34,18.86s-14.34-8.45-14.34-18.86
				C212.77,431.16,219.19,422.72,227.12,422.72 M227.12,418.72c-10.11,0-18.34,10.26-18.34,22.86s8.23,22.86,18.34,22.86
				s18.34-10.26,18.34-22.86S237.23,418.72,227.12,418.72L227.12,418.72z"/>
		</g>
	</g>
	<g>
		<path class="st0" d="M367.82,462.45c-9.01,0-16.34-9.36-16.34-20.86c0-11.5,7.33-20.86,16.34-20.86s16.34,9.36,16.34,20.86
			C384.16,453.09,376.83,462.45,367.82,462.45z"/>
		<g>
			<path class="st1" d="M367.82,422.72c7.92,0,14.34,8.45,14.34,18.86c0,10.42-6.42,18.86-14.34,18.86s-14.34-8.45-14.34-18.86
				C353.48,431.16,359.9,422.72,367.82,422.72 M367.82,418.72c-10.11,0-18.34,10.26-18.34,22.86s8.23,22.86,18.34,22.86
				s18.34-10.26,18.34-22.86S377.93,418.72,367.82,418.72L367.82,418.72z"/>
		</g>
	</g>
	<g>
		<path class="st0" d="M297.66,503.6c-20.75,0-40.53-9.21-55.72-25.93c-14.61-16.08-22.99-37.37-22.99-58.39
			c0-21.13,8.37-42.74,22.96-59.3c15.28-17.34,35.07-26.89,55.74-26.89s40.46,9.55,55.74,26.89c14.59,16.56,22.96,38.18,22.96,59.3
			c0,21.02-8.38,42.3-22.99,58.39C338.2,494.4,318.41,503.6,297.66,503.6z"/>
		<path class="st1" d="M297.66,335.1c42.36,0,76.7,41.82,76.7,84.19s-34.34,82.32-76.7,82.32s-76.7-39.95-76.7-82.32
			S255.3,335.1,297.66,335.1 M297.66,331.1c-21.25,0-41.57,9.79-57.24,27.56c-14.91,16.92-23.46,39.02-23.46,60.62
			c0,21.51,8.57,43.28,23.5,59.73c15.57,17.14,35.88,26.58,57.2,26.58s41.63-9.44,57.2-26.58c14.94-16.45,23.5-38.22,23.5-59.73
			c0-21.6-8.55-43.7-23.46-60.62C339.24,340.89,318.91,331.1,297.66,331.1L297.66,331.1z"/>
	</g>
	<g>
		<g>
			<path class="st1" d="M245.26,442.6c1.89-2.7,4.54-4.78,7.51-6.36l1.13-0.58l1.17-0.48l1.18-0.48l1.22-0.36
				c1.63-0.51,3.33-0.73,5.03-0.96c3.38-0.3,6.99-0.56,10.19,0.76c0.82,0.26,1.55,0.7,2.3,1.1c0.74,0.41,1.47,0.85,2.17,1.32
				c1.34,1.06,2.6,2.24,3.66,3.66l-0.27,0.53c-1.82,0.12-3.42-0.04-4.96-0.26c-0.79-0.05-1.55-0.13-2.29-0.24
				c-0.37-0.05-0.74-0.12-1.11-0.18c-0.36-0.08-0.73-0.13-1.09-0.16c-1.46-0.14-2.83-0.59-4.24-0.89c-0.7-0.17-1.4-0.45-2.11-0.55
				c-0.71-0.12-1.43-0.22-2.16-0.31c-1.44-0.05-2.91-0.12-4.36,0.07l-1.1,0.08l-1.08,0.19l-1.1,0.19l-1.07,0.29
				c-2.88,0.76-5.72,2.07-8.17,3.97L245.26,442.6z"/>
		</g>
		<g>
			<path class="st1" d="M349.01,442.99c-2.45-1.9-5.29-3.21-8.17-3.97l-1.07-0.29l-1.1-0.19l-1.08-0.19l-1.1-0.08
				c-1.45-0.2-2.92-0.12-4.36-0.07c-0.73,0.09-1.45,0.19-2.16,0.31c-0.71,0.1-1.42,0.37-2.11,0.55c-1.4,0.31-2.78,0.75-4.24,0.89
				c-0.37,0.03-0.73,0.07-1.09,0.16c-0.37,0.06-0.73,0.13-1.11,0.18c-0.75,0.1-1.51,0.19-2.29,0.24c-1.54,0.22-3.14,0.38-4.96,0.26
				l-0.27-0.53c1.05-1.42,2.31-2.6,3.66-3.66c0.7-0.47,1.43-0.91,2.17-1.32c0.75-0.39,1.49-0.84,2.3-1.1
				c3.2-1.32,6.8-1.07,10.19-0.76c1.7,0.23,3.4,0.45,5.03,0.96l1.22,0.36l1.18,0.48l1.17,0.48l1.13,0.58
				c2.96,1.59,5.61,3.67,7.51,6.36L349.01,442.99z"/>
		</g>
	</g>
	<path class="st1" d="M363.25,464.27c-0.31,1.2-0.46,3.51-1.24,4.54c35.51-46.77,13.85-110.27,13.85-110.27
		s-41.48-27.59-46.79-27.51c-5.04,0.07-29.43,26.47-30.95,32.68c-1.5-6.21-25.68-32.61-30.68-32.68
		c-5.27-0.07-46.39,27.51-46.39,27.51s-21.48,63.5,13.73,110.27c-0.77-1.03-0.93-3.34-1.23-4.54c-0.99-3.87-1.84-7.78-2.57-11.7
		c-1.86-10.05-3.23-20.69-1.65-30.86c0.63-4.04,1.77-8.22,4.24-11.58c9.34-12.68,29.4-14.41,43.88-12.45
		c3.16,0.43,6.28,1.16,9.29,2.19c1.04,0.36,10.45,2.79,11.34,3.97c0,0.11-0.01,0.17-0.01,0.17c0-0.04,0.01-0.08,0.04-0.13
		c0.02,0.04,0.04,0.09,0.04,0.13c0,0,0-0.06-0.01-0.17c0.89-1.18,10.39-3.62,11.44-3.97c3.04-1.03,6.19-1.77,9.38-2.19
		c14.61-1.96,34.84-0.24,44.27,12.45c2.49,3.36,3.64,7.54,4.28,11.58c1.6,10.18,0.21,20.82-1.66,30.86
		C365.11,456.5,364.25,460.4,363.25,464.27z"/>
	<g>
		<path class="st1" d="M466.38,391.19l-77.62-5.36l-13.6-12.22l13.6-12.22l77.62-5.36c7.42-0.51,13.73,5.37,13.73,12.81v9.53
			C480.11,385.82,473.81,391.7,466.38,391.19z"/>
		<path class="st1" d="M128.89,393.87l77.62-5.36l13.6-12.22l-13.6-12.22l-77.62-5.36c-7.42-0.51-13.73,5.37-13.73,12.81v9.53
			C115.17,388.5,121.47,394.39,128.89,393.87z"/>
		<g>
			<path class="st2" d="M225.37,399.5v-88.85c0-31.15,25.34-56.49,56.49-56.49h32.37c31.15,0,56.49,25.34,56.49,56.49v88.85H225.37z
				"/>
			<path class="st1" d="M314.23,256.16c30.09,0,54.49,24.4,54.49,54.49v86.85H227.37v-86.85c0-30.09,24.4-54.49,54.49-54.49H314.23
				 M314.23,252.16h-32.37c-32.25,0-58.49,26.24-58.49,58.49v86.85v4h4h141.34h4v-4v-86.85
				C372.72,278.39,346.48,252.16,314.23,252.16L314.23,252.16z"/>
		</g>
		<g>
			<path class="st2" d="M213.63,399.5v-32.62c0-31.99,26.03-58.02,58.02-58.02h52.79c31.99,0,58.02,26.03,58.02,58.02v32.62H213.63z
				"/>
			<path class="st1" d="M324.44,310.86c30.94,0,56.02,25.08,56.02,56.02v30.62H215.63v-30.62c0-30.94,25.08-56.02,56.02-56.02
				H324.44 M324.44,306.86h-52.79c-33.09,0-60.02,26.92-60.02,60.02v30.62v4h4h164.82h4v-4v-30.62
				C384.46,333.78,357.53,306.86,324.44,306.86L324.44,306.86z"/>
		</g>
		<g>
			<ellipse class="st3" cx="294.54" cy="356.27" rx="22.6" ry="13.34"/>
			<path class="st1" d="M294.54,344.93c11.38,0,20.6,5.08,20.6,11.34s-9.22,11.34-20.6,11.34c-11.38,0-20.6-5.08-20.6-11.34
				S283.16,344.93,294.54,344.93 M294.54,340.93c-14.02,0-24.6,6.59-24.6,15.34s10.57,15.34,24.6,15.34s24.6-6.59,24.6-15.34
				S308.56,340.93,294.54,340.93L294.54,340.93z"/>
		</g>
	</g>
	<g>
		<g>
			<circle class="st1" cx="327.44" cy="455.13" r="9.48"/>
			<ellipse class="st4" cx="331.42" cy="457.13" rx="3.5" ry="4.58"/>
		</g>
		<g>
			<circle class="st1" cx="267.29" cy="455.13" r="9.48"/>
			<ellipse class="st4" cx="271.26" cy="457.13" rx="3.5" ry="4.58"/>
		</g>
	</g>
	<path class="st1" d="M306.65,475.71c0.82,3.17-0.66,6.14-2.78,8.08c-2.16,1.96-5.09,2.99-7.95,2.95c-2.86-0.01-5.78-1.09-7.91-3.09
		c-2.09-1.98-3.52-4.98-2.65-8.12l0.58-0.39c0.59,0.77,1.28,1.44,2.05,2.01c0.75,0.59,1.57,1.09,2.43,1.49
		c1.74,0.79,3.65,1.17,5.55,1.14c1.9,0.05,3.82-0.3,5.57-1.06c0.87-0.38,1.7-0.87,2.46-1.45c0.78-0.55,1.49-1.21,2.09-1.97
		L306.65,475.71z"/>
</g>
</svg>
